<?xml version="1.0" encoding="utf-8"?>
<svg viewBox="97.021 40.938 610.466 290.852" xmlns="http://www.w3.org/2000/svg" xmlns:bx="https://boxy-svg.com">
  <g transform="matrix(0.519337, 0, 0, 0.519337, 60.668716, 40.96067)">
    <path d="M 618.33 93.332 L 140 93.332 C 133.559 93.332 128.332 98.559 128.332 105 C 128.332 111.441 133.559 116.668 140 116.668 L 606.67 116.668 L 606.67 501.668 C 606.67 510.949 602.982 519.852 596.416 526.414 C 589.853 532.98 580.951 536.668 571.67 536.668 L 128.33 536.668 C 119.049 536.668 110.146 532.98 103.584 526.414 C 97.018 519.851 93.33 510.949 93.33 501.668 L 93.33 58.328 C 93.33 49.047 97.017 40.144 103.584 33.582 C 110.146 27.016 119.049 23.328 128.33 23.328 L 571.6 23.328 C 581.037 22.812 590.248 26.332 596.94 33.008 C 603.632 39.683 607.167 48.891 606.671 58.328 C 606.671 64.773 611.893 69.996 618.334 69.996 C 624.78 69.996 630.002 64.773 630.002 58.328 C 630.596 42.683 624.639 27.5 613.569 16.43 C 602.498 5.36 587.315 -0.597 571.671 -0.004 L 128.33 -0.004 C 112.865 0.015 98.041 6.168 87.103 17.101 C 76.169 28.039 70.017 42.863 69.998 58.328 L 69.998 501.668 C 70.018 517.133 76.17 531.957 87.103 542.895 C 98.041 553.829 112.865 559.981 128.33 560 L 571.671 560 C 587.136 559.98 601.959 553.828 612.897 542.895 C 623.831 531.957 629.983 517.133 630.002 501.668 L 630.002 104.998 C 630.002 101.904 628.772 98.935 626.584 96.748 C 624.397 94.56 621.428 93.33 618.334 93.33 L 618.33 93.332 Z"/>
    <path d="M 140 46.668 C 133.559 46.668 128.332 51.891 128.332 58.332 C 128.332 64.777 133.559 70 140 70 L 163.332 70 C 169.777 70 175 64.777 175 58.332 C 175 51.891 169.777 46.668 163.332 46.668 L 140 46.668 Z"/>
    <path d="M 210 46.668 C 203.559 46.668 198.332 51.891 198.332 58.332 C 198.332 64.777 203.559 70 210 70 L 233.332 70 C 239.777 70 245 64.777 245 58.332 C 245 51.891 239.777 46.668 233.332 46.668 L 210 46.668 Z"/>
    <path d="M 548.33 46.668 C 541.889 46.668 536.666 51.891 536.666 58.332 C 536.666 64.777 541.889 70 548.33 70 L 571.666 70 C 578.107 70 583.33 64.777 583.33 58.332 C 583.33 51.891 578.107 46.668 571.666 46.668 L 548.33 46.668 Z"/>
    <g>
      <path d="M 197.914 174.627 L 167.511 174.627 C 161.916 174.627 157.376 179.163 157.376 184.759 L 157.376 215.162 C 157.376 220.76 161.916 225.297 167.511 225.297 C 173.107 225.297 177.647 220.76 177.647 215.162 L 177.647 194.894 L 197.914 194.894 C 203.51 194.894 208.05 190.357 208.05 184.759 C 208.05 179.163 203.51 174.627 197.914 174.627 Z" style="fill: rgb(72, 142, 255);" bx:origin="-0.000537 -0.000941"/>
      <path d="M 532.347 225.295 C 535.034 225.295 537.613 224.227 539.513 222.326 C 541.414 220.426 542.482 217.847 542.482 215.16 L 542.482 184.757 C 542.482 182.07 541.414 179.494 539.513 177.591 C 537.613 175.69 535.034 174.625 532.347 174.625 L 501.944 174.625 C 496.349 174.625 491.809 179.162 491.809 184.757 C 491.809 190.356 496.349 194.892 501.944 194.892 L 522.211 194.892 L 522.211 215.16 C 522.211 217.847 523.28 220.426 525.181 222.326 C 527.081 224.226 529.659 225.295 532.347 225.295 Z" style="fill: rgb(72, 142, 255);" bx:origin="-6.600228 -0.000905"/>
      <path d="M 501.944 478.656 L 532.347 478.656 C 535.034 478.656 537.613 477.587 539.513 475.687 C 541.414 473.787 542.482 471.208 542.482 468.521 L 542.482 438.118 C 542.482 432.522 537.942 427.982 532.347 427.982 C 526.752 427.982 522.211 432.522 522.211 438.118 L 522.211 458.385 L 501.944 458.385 C 496.349 458.385 491.809 462.925 491.809 468.521 C 491.809 474.116 496.349 478.656 501.944 478.656 Z" style="fill: rgb(72, 142, 255);" bx:origin="-6.600228 -5.000667"/>
      <path d="M 167.511 427.979 C 161.916 427.979 157.376 432.519 157.376 438.114 L 157.376 468.517 C 157.376 471.205 158.445 473.784 160.345 475.684 C 162.245 477.584 164.824 478.653 167.511 478.653 L 197.914 478.653 C 203.51 478.653 208.05 474.113 208.05 468.517 C 208.05 462.922 203.51 458.382 197.914 458.382 L 177.647 458.382 L 177.647 438.114 C 177.647 435.427 176.578 432.848 174.678 430.948 C 172.778 429.048 170.199 427.979 167.511 427.979 Z" style="fill: rgb(72, 142, 255);" bx:origin="-0.000537 -5.000598"/>
    </g>
    <g transform="matrix(0.46962, 0.437928, -0.437928, 0.46962, 343.296661, 27.096342)" style="">
      <g transform="matrix(0.921785, -0.179177, 0.179177, 0.921785, -47.216053, 138.755325)" style="">
        <path d="m202.33 410.29v-0.03125l-0.015625-0.03125z" style="fill: rgb(72, 142, 255);"/>
        <path d="m453.86 221.87 0.03125 0.15625z" style="fill: rgb(72, 142, 255);"/>
        <path d="M 498.29 105.98 C 496.583 94.683 491.505 84.164 483.724 75.8 C 483.259 75.316 482.771 74.855 482.263 74.417 C 475.224 67.976 467.13 62.792 458.337 59.093 C 456.736 58.167 455.013 57.46 453.22 56.992 C 412.415 46.972 386.63 63.867 375.872 107.68 C 375.618 108.715 375.372 109.769 375.138 110.836 C 374.942 111.73 374.805 112.641 374.727 113.551 C 373.766 125.266 375.29 137.051 379.2 148.137 C 379.477 148.933 379.802 149.715 380.169 150.473 C 393.794 176.602 404.927 203.953 413.415 232.172 L 413.454 232.328 L 413.454 232.332 C 418.813 256.144 422.102 280.379 423.282 304.762 C 426.505 364.879 418.962 406.892 400.661 430.812 C 368.61 467.558 326.833 472.933 275.331 446.945 L 275.327 446.945 C 258.323 437.702 246.503 421.175 243.253 402.097 L 243.237 402.03 C 242.78 399.769 242.456 397.483 242.257 395.186 C 242.542 393.632 242.652 392.05 242.581 390.468 C 242.503 388.968 242.433 387.538 242.37 386.147 L 242.37 386.151 C 242.976 379.393 245.351 372.917 249.261 367.374 C 253.921 371.777 260.389 370.952 266.725 369.98 C 273.064 369.003 278.562 367.98 281.683 362.378 C 284.8 356.776 283.148 340.929 283.113 339.304 C 283.089 338.597 283.042 337.871 282.976 337.128 L 282.976 337.124 L 282.976 337.128 C 282.605 333.617 281.952 330.144 281.027 326.737 L 280.913 326.312 L 275.421 306.82 L 270.472 279.832 L 268.64 267.633 L 268.531 266.98 C 265.675 251.347 256.976 244.859 242.441 247.515 L 242.437 247.515 L 242.437 247.511 C 237.659 248.398 233.288 250.781 229.957 254.316 C 228.804 255.496 227.796 256.808 226.953 258.226 C 225.23 261.082 223.937 264.175 223.121 267.406 L 223.519 266.011 C 222.093 270.437 219.289 280.542 215.105 296.327 L 208.644 317.636 L 208.566 317.906 C 206.964 323.461 205.48 329.832 204.117 337.027 L 204.113 337.043 L 204.109 337.046 C 202.316 346.011 201.097 355.081 200.472 364.202 L 200.472 364.183 L 200.468 364.21 L 200.468 364.23 L 200.468 364.214 C 200.211 368.824 200.211 374.874 200.457 382.312 L 200.457 382.316 C 199.761 391.676 200.39 401.086 202.324 410.269 C 207.734 441.566 227.281 468.613 255.293 483.578 L 255.996 483.953 C 327.316 520.152 386.186 511.398 432.616 457.691 C 432.854 457.418 433.085 457.133 433.307 456.847 C 458.221 424.777 468.768 373.288 464.948 302.387 L 464.929 302.071 L 464.929 302.075 C 463.589 275.102 459.894 248.298 453.878 221.966 C 444.886 191.489 433.011 161.939 418.413 133.716 C 416.733 128.708 416.011 123.427 416.28 118.154 L 416.397 117.646 C 419.905 103.357 426.948 96.447 437.452 96.771 L 437.452 96.767 C 439.472 97.572 441.609 98.052 443.777 98.197 C 447.519 99.974 450.96 102.334 453.972 105.181 C 455.733 107.58 456.847 110.392 457.21 113.345 L 457.253 113.58 C 458.53 118.728 458.335 124.135 456.69 129.178 C 455.046 134.225 452.018 138.705 447.952 142.112 C 442.331 146.998 439.745 154.514 441.163 161.827 C 442.577 169.135 447.784 175.139 454.823 177.577 C 461.862 180.01 469.667 178.51 475.3 173.635 C 485.081 165.643 492.425 155.069 496.488 143.108 C 500.554 131.147 501.179 118.288 498.293 105.991 L 498.29 105.98 Z" transform="matrix(0.978148, -0.207912, 0.207912, 0.978148, -50.565101, 78.914858)" style="fill: rgb(72, 142, 255);"/>
        <path d="m498.28 105.86 0.015625 0.125 0.027343 0.10938z" style="fill: rgb(72, 142, 255);"/>
      </g>
    </g>
  </g>
  <path d="M 775.073421484375 371.0824056152344 Q 775.073421484375 384.9448056152344 757.745421484375 384.9448056152344 Q 740.706221484375 384.9448056152344 740.706221484375 371.0824056152344 L 740.706221484375 166.32320561523437 Q 740.706221484375 152.46080561523436 757.745421484375 152.46080561523436 Q 775.073421484375 152.46080561523436 775.073421484375 166.32320561523437 Z M 950.4405049804687 153.90480561523438 Q 957.9493049804687 153.90480561523438 966.0357049804687 157.08160561523437 Q 974.1221049804687 160.25840561523438 981.6309049804688 165.16800561523436 L 981.3421049804688 165.16800561523436 Q 988.8509049804687 170.65520561523437 992.8941049804687 179.46360561523437 Q 996.9373049804688 188.27200561523438 996.9373049804688 199.82400561523437 L 996.9373049804688 337.0040056152344 Q 996.9373049804688 360.39680561523437 981.3421049804688 371.9488056152344 Q 973.8333049804687 377.43600561523436 965.8913049804687 380.46840561523436 Q 957.9493049804687 383.50080561523436 950.4405049804687 383.50080561523436 L 887.4821049804688 383.50080561523436 Q 879.9733049804687 383.50080561523436 872.0313049804688 380.46840561523436 Q 864.0893049804688 377.43600561523436 856.5805049804687 371.9488056152344 Q 849.0717049804688 366.1728056152344 845.0285049804687 357.65320561523436 Q 840.9853049804688 349.1336056152344 840.9853049804688 337.0040056152344 L 840.9853049804688 199.82400561523437 Q 840.9853049804688 188.27200561523438 845.0285049804687 179.46360561523437 Q 849.0717049804688 170.65520561523437 856.5805049804687 165.16800561523436 L 856.2917049804687 165.16800561523436 Q 863.8005049804688 160.25840561523438 871.8869049804688 157.08160561523437 Q 879.9733049804687 153.90480561523438 887.4821049804688 153.90480561523438 Z M 943.2205049804687 354.3320056152344 Q 953.9061049804687 354.3320056152344 958.2381049804687 348.2672056152344 Q 962.5701049804687 342.2024056152344 962.5701049804687 334.6936056152344 L 962.5701049804687 202.42320561523437 Q 962.5701049804687 195.20320561523437 958.2381049804687 189.13840561523438 Q 953.9061049804687 183.07360561523438 943.2205049804687 183.07360561523438 L 894.7021049804688 183.07360561523438 Q 884.0165049804688 183.07360561523438 879.6845049804688 189.13840561523438 Q 875.3525049804688 195.20320561523437 875.3525049804688 202.42320561523437 L 875.3525049804688 334.6936056152344 Q 875.3525049804688 342.2024056152344 879.6845049804688 348.2672056152344 Q 884.0165049804688 354.3320056152344 894.7021049804688 354.3320056152344 Z M 1182.70829453125 157.37040561523438 Q 1187.04029453125 152.17200561523438 1192.5274945312499 152.17200561523438 Q 1198.59229453125 152.17200561523438 1204.94589453125 157.65920561523438 Q 1208.12269453125 160.83600561523437 1210.28869453125 164.01280561523438 Q 1212.45469453125 167.18960561523437 1212.45469453125 170.36640561523438 Q 1212.45469453125 175.56480561523438 1208.70029453125 179.31920561523438 L 1170.00109453125 224.37200561523437 L 1094.62429453125 313.03360561523436 L 1094.62429453125 371.0824056152344 Q 1094.62429453125 384.9448056152344 1077.29629453125 384.9448056152344 Q 1060.25709453125 384.9448056152344 1060.25709453125 371.0824056152344 L 1060.25709453125 166.32320561523437 Q 1060.25709453125 152.46080561523436 1077.29629453125 152.46080561523436 Q 1094.62429453125 152.46080561523436 1094.62429453125 166.32320561523437 L 1094.62429453125 260.7608056152344 Z M 1141.69869453125 294.55040561523435 Q 1138.81069453125 290.5072056152344 1138.81069453125 284.7312056152344 Q 1138.81069453125 276.06720561523434 1146.03069453125 270.86880561523435 L 1145.74189453125 270.86880561523435 Q 1151.51789453125 266.8256056152344 1157.29389453125 266.8256056152344 Q 1162.78109453125 266.8256056152344 1166.53549453125 273.17920561523437 L 1222.2738945312499 354.62080561523436 L 1221.98509453125 354.3320056152344 Q 1224.58429453125 358.3752056152344 1224.58429453125 362.99600561523437 Q 1224.58429453125 370.5048056152344 1217.0754945312501 376.2808056152344 L 1217.36429453125 376.2808056152344 Q 1214.18749453125 378.30240561523436 1211.29949453125 379.4576056152344 Q 1208.41149453125 380.6128056152344 1206.10109453125 380.6128056152344 Q 1203.79069453125 380.6128056152344 1201.33589453125 378.8800056152344 Q 1198.88109453125 377.1472056152344 1196.57069453125 374.5480056152344 Z" transform="matrix(0.5193369388580322, 0, 0, 0.5193369388580322, 60.66871643066406, 40.960670471191406)" style="fill: rgb(51, 51, 51); white-space: pre;"/>
</svg>